<?xml version="1.0" standalone="no"?>
<!DOCTYPE svg PUBLIC "-//W3C//DTD SVG 20010904//EN"
 "http://www.w3.org/TR/2001/REC-SVG-20010904/DTD/svg10.dtd">
<svg version="1.0" xmlns="http://www.w3.org/2000/svg"
 width="76.000000pt" height="71.000000pt" viewBox="0 0 76.000000 71.000000"
 preserveAspectRatio="xMidYMid meet">

<g transform="translate(0.000000,71.000000) scale(0.100000,-0.100000)"
fill="#000000" stroke="none">
<path d="M473 661 c-75 -35 -108 -118 -78 -196 28 -76 109 -119 184 -99 35 10
41 8 70 -18 33 -30 69 -36 89 -16 20 20 14 43 -23 78 -27 26 -32 37 -25 51 6
10 10 38 10 62 0 114 -121 187 -227 138z m139 -70 c70 -62 24 -171 -73 -171
-57 0 -99 42 -99 100 0 91 102 133 172 71z"/>
<path d="M84 511 c-43 -11 -54 -19 -54 -41 0 -10 -4 -22 -10 -25 -6 -4 -10
-78 -10 -190 0 -157 2 -184 16 -189 9 -3 60 -6 114 -6 55 0 102 -4 105 -10 3
-6 33 -10 65 -10 32 0 62 4 65 10 3 6 50 10 105 10 54 0 105 3 114 6 14 5 16
27 16 141 0 119 -2 134 -16 129 -9 -3 -24 -6 -35 -6 -17 0 -19 -8 -19 -103 l0
-104 -72 1 c-40 1 -88 -2 -105 -6 l-33 -7 0 174 c0 110 4 175 10 175 6 0 10
10 10 23 0 19 -6 22 -37 23 -21 1 -74 4 -118 7 -44 4 -94 3 -111 -2z m189 -46
c15 -6 17 -25 17 -180 l0 -172 -52 9 c-29 6 -77 7 -105 4 l-53 -6 0 174 c0
173 0 175 23 180 28 6 146 0 170 -9z"/>
</g>
</svg>
