<?xml version="1.0" standalone="no"?>
<!DOCTYPE svg PUBLIC "-//W3C//DTD SVG 20010904//EN"
 "http://www.w3.org/TR/2001/REC-SVG-20010904/DTD/svg10.dtd">
<svg version="1.0" xmlns="http://www.w3.org/2000/svg"
 width="72.000000pt" height="72.000000pt" viewBox="0 0 72.000000 72.000000"
 preserveAspectRatio="xMidYMid meet">

<g transform="translate(0.000000,72.000000) scale(0.100000,-0.100000)"
fill="#0e3462" stroke="none">
<path d="M270 582 c0 -16 -8 -17 -63 -14 -50 3 -72 0 -105 -17 -22 -11 -44
-26 -48 -32 -8 -14 85 -109 108 -109 11 0 18 -7 18 -20 0 -20 45 -50 75 -50
11 0 15 -10 15 -35 0 -35 0 -35 -45 -35 l-45 0 0 -59 c0 -89 5 -91 218 -91
l174 0 29 29 29 29 0 211 0 211 -180 0 c-167 0 -180 -1 -180 -18z m300 -216
c0 -169 -1 -175 -21 -181 -26 -9 -39 8 -39 53 l0 32 -90 0 -90 0 0 38 c1 28 7
41 26 56 l26 18 42 -41 c47 -47 86 -55 86 -18 0 15 -29 52 -90 112 -49 49 -90
93 -90 97 0 5 54 8 120 8 l120 0 0 -174z m-312 130 c15 -8 40 -28 56 -44 27
-30 28 -30 8 -41 -12 -6 -34 -11 -51 -11 -29 0 -31 3 -31 35 0 34 -1 35 -38
35 -36 0 -62 14 -62 32 0 13 89 9 118 -6z"/>
</g>
</svg>
